<?xml version="1.0" encoding="UTF-8"?>
<svg width="35px" height="37px" viewBox="0 0 35 37" version="1.1" xmlns="http://www.w3.org/2000/svg" xmlns:xlink="http://www.w3.org/1999/xlink">
    <!-- Generator: Sketch 41.1 (35376) - http://www.bohemiancoding.com/sketch -->
    <title>Shape</title>
    <desc>Created with Sketch.</desc>
    <defs></defs>
    <g id="Symbols" stroke="none" stroke-width="1" fill="none" fill-rule="evenodd">
        <g id="Menu-Bar-Desktop" transform="translate(0.000000, -75.000000)" fill="#000000">
            <path d="M5.52631579,75 C2.47302632,75 0,77.2578409 0,80.0454545 L0,106.954545 C0,109.742159 2.47302632,112 5.52631579,112 L35,112 L35,75 L5.52631579,75 Z M31.3157895,108.636364 L5.52631579,108.636364 C4.50901316,108.636364 3.68421053,107.88333 3.68421053,106.954545 C3.68421053,106.025761 4.50901316,105.272727 5.52631579,105.272727 L31.3157895,105.272727 L31.3157895,108.636364 Z M31.3157895,101.909091 L5.52631579,101.909091 C4.87927632,101.909091 4.26125,102.015886 3.68421053,102.202148 L3.68421053,80.0454545 C3.68421053,79.11625 4.50855263,78.3636364 5.52631579,78.3636364 L31.3157895,78.3636364 L31.3157895,101.909091 Z" id="Shape"></path>
        </g>
    </g>
</svg>