<?xml version="1.0" encoding="UTF-8"?>
<svg width="35px" height="30px" viewBox="0 0 35 30" version="1.1" xmlns="http://www.w3.org/2000/svg" xmlns:xlink="http://www.w3.org/1999/xlink">
    <!-- Generator: Sketch 41.1 (35376) - http://www.bohemiancoding.com/sketch -->
    <title>Shape</title>
    <desc>Created with Sketch.</desc>
    <defs></defs>
    <g id="Symbols" stroke="none" stroke-width="1" fill="none" fill-rule="evenodd">
        <g id="Menu-Bar-Desktop" transform="translate(0.000000, -227.000000)" fill="#000000">
            <path d="M1.75,231.285714 L33.25,231.285714 C34.2164375,231.285714 35,230.32625 35,229.142857 C35,227.959464 34.2164375,227 33.25,227 L1.75,227 C0.7835625,227 0,227.959464 0,229.142857 C0,230.32625 0.7835625,231.285714 1.75,231.285714 Z M1.75,239.857143 L26.25,239.857143 C27.2164375,239.857143 28,238.897679 28,237.714286 C28,236.530893 27.2164375,235.571429 26.25,235.571429 L1.75,235.571429 C0.7835625,235.571429 0,236.530893 0,237.714286 C0,238.897679 0.7835625,239.857143 1.75,239.857143 Z M33.25,244.142857 L1.75,244.142857 C0.7835625,244.142857 0,245.102321 0,246.285714 C0,247.469107 0.7835625,248.428571 1.75,248.428571 L33.25,248.428571 C34.2164375,248.428571 35,247.469107 35,246.285714 C35,245.102321 34.2164375,244.142857 33.25,244.142857 Z M26.25,252.714286 L1.75,252.714286 C0.7835625,252.714286 0,253.67375 0,254.857143 C0,256.040536 0.7835625,257 1.75,257 L26.25,257 C27.2164375,257 28,256.040536 28,254.857143 C28,253.67375 27.2164375,252.714286 26.25,252.714286 Z" id="Shape"></path>
        </g>
    </g>
</svg>