<?xml version="1.0" encoding="UTF-8"?>
<svg width="36px" height="35px" viewBox="0 0 36 35" version="1.1" xmlns="http://www.w3.org/2000/svg" xmlns:xlink="http://www.w3.org/1999/xlink">
    <!-- Generator: Sketch 41.1 (35376) - http://www.bohemiancoding.com/sketch -->
    <title>Shape</title>
    <desc>Created with Sketch.</desc>
    <defs></defs>
    <g id="Symbols" stroke="none" stroke-width="1" fill="none" fill-rule="evenodd">
        <g id="Menu-Bar-Desktop" transform="translate(0.000000, -152.000000)" fill="#000000">
            <path d="M24.251625,172.260435 C25.9455,170.600598 27,168.273098 27,165.695652 L27,161.130435 C27,156.087772 22.970625,152 18,152 C13.029375,152 9,156.087772 9,161.130435 L9,165.695652 C9,168.272337 10.0545,170.599076 11.74725,172.259293 C4.888875,173.343152 0,176.153043 0,179.427065 L0,182.434783 C0,184.957065 2.01375,187 4.5,187 L31.5,187 C33.98625,187 36,184.957065 36,182.434783 L36,179.438859 C36,176.165217 31.11075,173.346576 24.251625,172.260435 Z M12,165.695652 L12,161.130435 C12,157.768913 14.6865,155.043478 18,155.043478 C21.313875,155.043478 24,157.768913 24,161.130435 L24,165.695652 C24,169.057174 21.313875,171.782609 18,171.782609 C14.6865,171.782609 12,169.057174 12,165.695652 Z M33,182.434783 C33,183.274022 32.32725,183.956522 31.5,183.956522 L4.5,183.956522 C3.67275,183.956522 3,183.274022 3,182.434783 L3,179.427065 C3,179.0725 3.864375,177.927772 6.432,176.835543 C9.4335,175.558424 13.65,174.826087 18,174.826087 C22.34775,174.826087 26.563125,175.560326 29.56575,176.840109 C32.134875,177.935761 33,179.082772 33,179.438859 L33,182.434783 Z" id="Shape"></path>
        </g>
    </g>
</svg>