<?xml version="1.0" encoding="UTF-8"?>
<svg width="37px" height="37px" viewBox="0 0 37 37" version="1.1" xmlns="http://www.w3.org/2000/svg" xmlns:xlink="http://www.w3.org/1999/xlink">
    <!-- Generator: Sketch 41.1 (35376) - http://www.bohemiancoding.com/sketch -->
    <title>Shape</title>
    <desc>Created with Sketch.</desc>
    <defs></defs>
    <g id="Symbols" stroke="none" stroke-width="1" fill="none" fill-rule="evenodd">
        <g id="Menu-Bar-Desktop" transform="translate(1.000000, 1.000000)" stroke="#FFFFFF" fill="#000000">
            <path d="M24.2307692,14.8076923 C24.2307692,12.2135417 23.3087941,9.99449119 21.4648437,8.15054087 C19.6208934,6.30659054 17.4018429,5.38461538 14.8076923,5.38461538 C12.2135417,5.38461538 9.99449119,6.30659054 8.15054087,8.15054087 C6.30659054,9.99449119 5.38461538,12.2135417 5.38461538,14.8076923 C5.38461538,17.4018429 6.30659054,19.6208934 8.15054087,21.4648437 C9.99449119,23.3087941 12.2135417,24.2307692 14.8076923,24.2307692 C17.4018429,24.2307692 19.6208934,23.3087941 21.4648437,21.4648437 C23.3087941,19.6208934 24.2307692,17.4018429 24.2307692,14.8076923 L24.2307692,14.8076923 Z M35,32.3076923 C35,33.036859 34.7335737,33.6678686 34.2007212,34.2007212 C33.6678686,34.7335737 33.036859,35 32.3076923,35 C31.5504808,35 30.9194712,34.7335737 30.4146635,34.2007212 L23.2001202,27.0072115 C20.6901042,28.7459936 17.8926282,29.6153846 14.8076923,29.6153846 C12.802484,29.6153846 10.8849159,29.226262 9.05498798,28.4480168 C7.2250601,27.6697716 5.64753606,26.6180889 4.32241587,25.2929688 C2.99729567,23.9678486 1.94561298,22.3903245 1.16736779,20.5603966 C0.389122596,18.7304688 0,16.8129006 0,14.8076923 C0,12.802484 0.389122596,10.8849159 1.16736779,9.05498798 C1.94561298,7.2250601 2.99729567,5.64753606 4.32241587,4.32241587 C5.64753606,2.99729567 7.2250601,1.94561298 9.05498798,1.16736779 C10.8849159,0.389122596 12.802484,0 14.8076923,0 C16.8129006,0 18.7304688,0.389122596 20.5603966,1.16736779 C22.3903245,1.94561298 23.9678486,2.99729567 25.2929688,4.32241587 C26.6180889,5.64753606 27.6697716,7.2250601 28.4480168,9.05498798 C29.226262,10.8849159 29.6153846,12.802484 29.6153846,14.8076923 C29.6153846,17.8926282 28.7459936,20.6901042 27.0072115,23.2001202 L34.2217548,30.4146635 C34.7405849,30.9334936 35,31.5645032 35,32.3076923 L35,32.3076923 Z" id="Shape"></path>
        </g>
    </g>
</svg>