<?xml version="1.0" encoding="UTF-8" standalone="no"?>
<svg width="22px" height="22px" viewBox="0 0 22 22" version="1.1" xmlns="http://www.w3.org/2000/svg" xmlns:xlink="http://www.w3.org/1999/xlink">
    <!-- Generator: Sketch 40.1 (33804) - http://www.bohemiancoding.com/sketch -->
    <title>Combined Shape</title>
    <desc>Created with Sketch.</desc>
    <defs></defs>
    <g id="Welcome" stroke="none" stroke-width="1" fill="none" fill-rule="evenodd">
        <g id="Sign-Up-mobile" transform="translate(-85.000000, -531.000000)" fill="#00ACED">
            <g id="Group-6" transform="translate(31.000000, 441.000000)">
                <g id="Group-7" transform="translate(54.000000, 90.000000)">
                    <path d="M11,22 C17.0751322,22 22,17.0751322 22,11 C22,4.92486775 17.0751322,0 11,0 C4.92486775,0 0,4.92486775 0,11 C0,17.0751322 4.92486775,22 11,22 Z M16.5,7.56875 C16.1882403,8.028125 15.8113367,8.41953125 15.3692893,8.74296875 C15.3739425,8.80859375 15.376269,8.90703125 15.376269,9.03828125 C15.376269,9.64765625 15.2878596,10.2558594 15.1110406,10.8628906 C14.9342217,11.4699219 14.6655034,12.0523438 14.3048858,12.6101563 C13.9442682,13.1679688 13.5150169,13.6613281 13.017132,14.0902344 C12.519247,14.5191406 11.9189932,14.8613281 11.2163706,15.1167969 C10.5137479,15.3722656 9.76226734,15.5 8.96192893,15.5 C7.70093063,15.5 6.54695431,15.1601563 5.5,14.4804688 C5.66285956,14.4992188 5.84433164,14.5085938 6.04441624,14.5085938 C7.09137056,14.5085938 8.02432318,14.1851563 8.84327411,13.5382813 C8.35469543,13.5289063 7.91730118,13.3777344 7.53109137,13.0847656 C7.14488156,12.7917969 6.87965313,12.4179688 6.73540609,11.9632813 C6.88895939,11.9867188 7.03087986,11.9984375 7.16116751,11.9984375 C7.36125212,11.9984375 7.55901015,11.9726563 7.75444162,11.9210938 C7.23329103,11.8132813 6.8017132,11.5519531 6.45970812,11.1371094 C6.11770305,10.7222656 5.94670051,10.240625 5.94670051,9.6921875 L5.94670051,9.6640625 C6.26311337,9.8421875 6.60279188,9.93828125 6.96573604,9.95234375 C6.65862944,9.74609375 6.4143401,9.4765625 6.23286802,9.14375 C6.05139594,8.8109375 5.9606599,8.45 5.9606599,8.0609375 C5.9606599,7.6484375 6.06302876,7.26640625 6.2677665,6.91484375 C6.83079526,7.61328125 7.5159687,8.17226563 8.3232868,8.59179688 C9.13060491,9.01132813 9.99492386,9.24453125 10.9162437,9.29140625 C10.8790186,9.11328125 10.8604061,8.93984375 10.8604061,8.77109375 C10.8604061,8.14296875 11.0802665,7.60742188 11.5199873,7.16445313 C11.9597081,6.72148438 12.4913283,6.5 13.1148477,6.5 C13.766286,6.5 14.3153553,6.7390625 14.7620558,7.2171875 C15.269247,7.11875 15.7461929,6.9359375 16.1928934,6.66875 C16.0207276,7.2078125 15.6903553,7.625 15.2017766,7.9203125 C15.6345178,7.8734375 16.0672589,7.75625 16.5,7.56875 Z" id="Combined-Shape"></path>
                </g>
            </g>
        </g>
    </g>
</svg>